<svg width="152" height="94" viewBox="0 0 152 94" fill="none" xmlns="http://www.w3.org/2000/svg">
<mask id="mask0_223_5822" style="mask-type:luminance" maskUnits="userSpaceOnUse" x="0" y="0" width="152" height="94">
<path d="M151.5 0.5H0.5V93.5H151.5V0.5Z" fill="white"/>
</mask>
<g mask="url(#mask0_223_5822)">
<path d="M44.7767 53.9959L16.0992 82.6176C15.106 83.6087 15.8469 85.2456 17.2886 85.2456H133.168C134.603 85.2456 135.346 83.6208 134.366 82.6264L103.791 54.005C103.481 53.6905 103.047 53.5119 102.593 53.5119H45.9659C45.5162 53.5119 45.0865 53.6869 44.7767 53.9959Z" fill="#AF0A13"/>
<path d="M128.976 75.6154L114.409 69.2691L33.6544 70.2959L21.4525 75.6154L21.3477 81.9438H129.08L128.976 75.6154Z" fill="#C2B1E3"/>
<path d="M128.976 75.6154C128.976 75.6154 107.33 55.5111 105.007 53.1999C97.7781 51.7463 92.5929 51.8839 87.5527 52.0214C80.2101 52.2218 77.382 52.7781 75.1696 53.1999C71.6977 51.8792 60.5502 51.9067 55.9409 51.9067C51.3315 51.9067 43.4997 53.1999 43.4997 53.1999L21.4531 75.6154C21.4531 75.6154 42.7566 73.0136 49.8212 73.0136C56.8859 73.0136 75.1696 75.6154 75.1696 75.6154C75.1696 75.6154 83.0199 73.5977 92.1007 73.5977C101.181 73.5977 128.976 75.6154 128.976 75.6154Z" fill="url(#paint0_linear_223_5822)"/>
<path d="M75.382 53.1999C78.7007 51.9527 90.2779 51.6316 94.8872 51.6316C99.4966 51.6316 107.052 53.1999 107.052 53.1999L128.684 75.2659C128.684 75.2659 113.349 74.1709 104.175 73.483C95.0004 72.7951 75.382 75.6154 75.382 75.6154" fill="url(#paint1_linear_223_5822)"/>
<mask id="mask1_223_5822" style="mask-type:luminance" maskUnits="userSpaceOnUse" x="-119" y="-56" width="388" height="160">
<path d="M-118.422 -55.6302H268.758V103.956H-118.422V-55.6302Z" fill="white"/>
</mask>
<g mask="url(#mask1_223_5822)">
<path d="M75.1688 53.1999C71.8501 51.9527 60.2729 51.6316 55.6635 51.6316C51.0542 51.6316 43.4989 53.1999 43.4989 53.1999L21.8672 75.266C21.8672 75.266 37.2014 74.1709 46.3759 73.483C55.5504 72.7951 75.1688 75.6154 75.1688 75.6154" fill="url(#paint2_linear_223_5822)"/>
</g>
<mask id="mask2_223_5822" style="mask-type:luminance" maskUnits="userSpaceOnUse" x="-119" y="-56" width="388" height="160">
<path d="M-118.422 -55.6302H268.758V103.956H-118.422V-55.6302Z" fill="white"/>
</mask>
<g mask="url(#mask2_223_5822)">
<path d="M75.1688 53.1999C71.8501 51.9527 60.2729 51.6316 55.6635 51.6316C51.0542 51.6316 43.4989 53.1999 43.4989 53.1999L21.8672 75.266C21.8672 75.266 37.2014 74.1709 46.3759 73.483C55.5504 72.7951 75.1688 75.6154 75.1688 75.6154" fill="url(#paint3_linear_223_5822)"/>
</g>
<mask id="mask3_223_5822" style="mask-type:luminance" maskUnits="userSpaceOnUse" x="-119" y="-56" width="388" height="160">
<path d="M-118.422 -55.6302H268.758V103.956H-118.422V-55.6302Z" fill="white"/>
</mask>
<g mask="url(#mask3_223_5822)">
<path d="M75.1675 53.1999C71.8132 51.9356 60.1271 51.344 55.5177 51.344C50.9083 51.344 43.4976 53.1999 43.4976 53.1999L21.7695 75.0902C21.7695 75.0902 37.1359 73.42 46.3104 72.7322C55.4849 72.0443 75.1675 75.6154 75.1675 75.6154" fill="url(#paint4_linear_223_5822)"/>
</g>
<mask id="mask4_223_5822" style="mask-type:luminance" maskUnits="userSpaceOnUse" x="-119" y="-56" width="388" height="160">
<path d="M-118.422 -55.6302H268.758V103.956H-118.422V-55.6302Z" fill="white"/>
</mask>
<g mask="url(#mask4_223_5822)">
<path d="M75.1679 53.1999C71.7197 51.8906 59.746 50.5851 55.1367 50.5851C50.5273 50.5851 43.498 53.1999 43.498 53.1999L21.5156 74.6264C21.5156 74.6264 36.9667 71.4383 46.1412 70.7504C55.3157 70.0626 75.1679 75.6154 75.1679 75.6154" fill="url(#paint5_linear_223_5822)"/>
</g>
<mask id="mask5_223_5822" style="mask-type:luminance" maskUnits="userSpaceOnUse" x="-119" y="-56" width="388" height="160">
<path d="M-118.422 -55.6302H268.758V103.956H-118.422V-55.6302Z" fill="white"/>
</mask>
<g mask="url(#mask5_223_5822)">
<path d="M75.1677 53.1999C71.5555 48.2703 62.1175 44.2131 57.5112 44.0718C52.2858 43.9046 46.9806 46.37 42.0354 45.9752C40.9292 46.8215 25.4317 60.1643 22.8633 62.2173C26.5915 63.024 37.8388 61.4555 47.6112 61.47C61.6958 61.6033 75.1677 75.6154 75.1677 75.6154" fill="url(#paint6_linear_223_5822)"/>
</g>
<mask id="mask6_223_5822" style="mask-type:luminance" maskUnits="userSpaceOnUse" x="-119" y="-56" width="388" height="160">
<path d="M-118.422 -55.6302H268.758V103.956H-118.422V-55.6302Z" fill="white"/>
</mask>
<g mask="url(#mask6_223_5822)">
<path d="M75.1663 53.1999C74.1578 45.4464 72.2346 37.9712 71.0647 35.7442C69.0845 30.9345 65.5584 23.226 61.5677 20.8014C59.4121 20.7995 54.3288 21.4637 50.8789 22.0228C55.7355 24.7133 61.8212 33.666 66.0946 40.406C71.3363 49.6195 75.1663 75.6154 75.1663 75.6154" fill="url(#paint7_linear_223_5822)"/>
</g>
<mask id="mask7_223_5822" style="mask-type:luminance" maskUnits="userSpaceOnUse" x="-119" y="-56" width="388" height="160">
<path d="M268.758 -55.6302H-118.422V103.956H268.758V-55.6302Z" fill="white"/>
</mask>
<g mask="url(#mask7_223_5822)">
<path d="M75.1671 53.1999C78.4858 51.9527 90.063 51.6316 94.6724 51.6316C99.2818 51.6316 106.837 53.1999 106.837 53.1999L128.469 75.2659C128.469 75.2659 113.135 74.1709 103.96 73.483C94.7855 72.7951 75.1671 75.6154 75.1671 75.6154" fill="url(#paint8_linear_223_5822)"/>
</g>
<mask id="mask8_223_5822" style="mask-type:luminance" maskUnits="userSpaceOnUse" x="-119" y="-56" width="388" height="160">
<path d="M268.758 -55.6302H-118.422V103.956H268.758V-55.6302Z" fill="white"/>
</mask>
<g mask="url(#mask8_223_5822)">
<path d="M75.1671 53.1999C78.4858 51.9527 90.063 51.6316 94.6724 51.6316C99.2818 51.6316 106.837 53.1999 106.837 53.1999L128.469 75.2659C128.469 75.2659 113.135 74.1709 103.96 73.483C94.7855 72.7951 75.1671 75.6154 75.1671 75.6154" fill="url(#paint9_linear_223_5822)"/>
</g>
<mask id="mask9_223_5822" style="mask-type:luminance" maskUnits="userSpaceOnUse" x="-119" y="-56" width="388" height="160">
<path d="M268.758 -55.6302H-118.422V103.956H268.758V-55.6302Z" fill="white"/>
</mask>
<g mask="url(#mask9_223_5822)">
<path d="M75.1673 53.1999C78.5667 51.914 90.3911 50.9792 95.0004 50.9792C99.6098 50.9792 106.837 53.1999 106.837 53.1999L128.688 74.8673C128.688 74.8673 113.28 72.4674 104.106 71.7795C94.9314 71.0917 75.1673 75.6154 75.1673 75.6154" fill="url(#paint10_linear_223_5822)"/>
</g>
</g>
<defs>
<linearGradient id="paint0_linear_223_5822" x1="38.6331" y1="59.3817" x2="85.9059" y2="82.917" gradientUnits="userSpaceOnUse">
<stop offset="0.13" stop-color="white"/>
<stop offset="0.57" stop-color="#D8DBF1"/>
<stop offset="1" stop-color="#B1B7E3"/>
</linearGradient>
<linearGradient id="paint1_linear_223_5822" x1="111.918" y1="59.3817" x2="79.9293" y2="74.9923" gradientUnits="userSpaceOnUse">
<stop offset="0.13" stop-color="white"/>
<stop offset="0.57" stop-color="#DED8F1"/>
<stop offset="1" stop-color="#BDB1E3"/>
</linearGradient>
<linearGradient id="paint2_linear_223_5822" x1="38.6323" y1="59.3817" x2="70.6215" y2="74.9923" gradientUnits="userSpaceOnUse">
<stop offset="0.13" stop-color="white"/>
<stop offset="0.57" stop-color="#DED8F1"/>
<stop offset="1" stop-color="#BDB1E3"/>
</linearGradient>
<linearGradient id="paint3_linear_223_5822" x1="38.6323" y1="59.3817" x2="70.6215" y2="74.9923" gradientUnits="userSpaceOnUse">
<stop offset="0.13" stop-color="white"/>
<stop offset="0.57" stop-color="#DED8F1"/>
<stop offset="1" stop-color="#BDB1E3"/>
</linearGradient>
<linearGradient id="paint4_linear_223_5822" x1="38.631" y1="59.3817" x2="72.3949" y2="75.9126" gradientUnits="userSpaceOnUse">
<stop offset="0.13" stop-color="white"/>
<stop offset="0.57" stop-color="#DED8F1"/>
<stop offset="1" stop-color="#BDB1E3"/>
</linearGradient>
<linearGradient id="paint5_linear_223_5822" x1="38.6314" y1="59.3817" x2="77.0795" y2="78.3414" gradientUnits="userSpaceOnUse">
<stop offset="0.13" stop-color="white"/>
<stop offset="0.57" stop-color="#DED8F1"/>
<stop offset="1" stop-color="#BDB1E3"/>
</linearGradient>
<linearGradient id="paint6_linear_223_5822" x1="38.6313" y1="59.3816" x2="83.836" y2="81.8447" gradientUnits="userSpaceOnUse">
<stop offset="0.13" stop-color="white"/>
<stop offset="0.57" stop-color="#DED8F1"/>
<stop offset="1" stop-color="#BDB1E3"/>
</linearGradient>
<linearGradient id="paint7_linear_223_5822" x1="38.6298" y1="59.3817" x2="85.9026" y2="82.917" gradientUnits="userSpaceOnUse">
<stop offset="0.13" stop-color="white"/>
<stop offset="0.57" stop-color="#DED8F1"/>
<stop offset="1" stop-color="#BDB1E3"/>
</linearGradient>
<linearGradient id="paint8_linear_223_5822" x1="111.704" y1="59.3817" x2="79.7144" y2="74.9923" gradientUnits="userSpaceOnUse">
<stop offset="0.13" stop-color="white"/>
<stop offset="0.57" stop-color="#DED8F1"/>
<stop offset="1" stop-color="#BDB1E3"/>
</linearGradient>
<linearGradient id="paint9_linear_223_5822" x1="111.704" y1="59.3817" x2="79.7144" y2="74.9923" gradientUnits="userSpaceOnUse">
<stop offset="0.13" stop-color="white"/>
<stop offset="0.57" stop-color="#DED8F1"/>
<stop offset="1" stop-color="#BDB1E3"/>
</linearGradient>
<linearGradient id="paint10_linear_223_5822" x1="111.704" y1="59.3817" x2="75.6881" y2="77.0801" gradientUnits="userSpaceOnUse">
<stop offset="0.13" stop-color="white"/>
<stop offset="0.57" stop-color="#DED8F1"/>
<stop offset="1" stop-color="#BDB1E3"/>
</linearGradient>
</defs>
</svg>
