<svg width="134" height="114" viewBox="0 0 134 114" fill="none" xmlns="http://www.w3.org/2000/svg">
<g clip-path="url(#clip0_134_2440)">
<mask id="mask0_134_2440" style="mask-type:luminance" maskUnits="userSpaceOnUse" x="0" y="0" width="134" height="114">
<path d="M133.5 0H0.5V114H133.5V0Z" fill="white"/>
</mask>
<g mask="url(#mask0_134_2440)">
<path d="M37.2778 70.7293L64.7849 71.2342C64.7849 71.2342 70.7588 72.0684 67.4319 78.7501C62.8072 79.1322 41.4358 80.0338 38.8107 79.9413C36.1857 79.8489 30.7696 74.5048 37.2778 70.7293Z" fill="url(#paint0_linear_134_2440)"/>
<path d="M99.9298 83.9891L73.4036 76.6765C73.4036 76.6765 67.8219 74.3865 72.6964 68.7381C77.2714 69.5153 98.2005 73.9429 100.721 74.6835C103.241 75.4241 107.168 81.9456 99.9298 83.9891Z" fill="url(#paint1_linear_134_2440)"/>
<path d="M84.2287 87.5786C81.6894 89.8393 78.5835 92.0261 75.2808 92.9177C73.927 93.0417 71.957 92.4447 70.6212 92.0615C67.4742 91.3217 65.523 88.3874 62.8411 86.9215C57.4923 85.2427 49.9455 56.7864 58.1723 54.7905C64.5132 53.5953 56.1912 42.9901 56.4772 36.2688C56.7787 28.8161 63.9541 28.4049 68.893 24.3791C68.9832 31.2601 66.6128 31.7416 67.4982 36.3998C68.1967 39.6199 70.2658 42.5913 74.2413 42.8954C78.0682 43.1888 80.483 42.1081 80.8433 39.0735C81.2197 43.8091 85.3676 45.3566 87.2576 51.9636C88.1955 55.1311 88.9714 63.0173 83.7901 69.6293C81.7352 72.0264 81.2827 74.4197 81.9516 77.5065C82.1065 81.8146 88.0288 83.3798 84.2287 87.5786Z" fill="#E8793D"/>
<path d="M55.0512 49.3294C52.8409 51.1588 48.2282 53.4375 46.3383 57.8345C44.4083 62.3014 47.0511 68.1633 47.043 70.6402C46.9149 74.7804 46.2422 75.9679 47.2993 77.8936C51.3858 85.3379 60.3867 78.1643 61.6499 73.8176C62.5148 69.7736 68.334 60.4541 67.2877 58.4764C66.2306 56.5507 62.7854 55.7134 58.0623 56.0693C54.6348 56.1655 53.0652 52.8598 55.0512 49.3294Z" fill="#E8793D"/>
<path d="M26.4727 80.9442L58.0836 73.9933C58.0836 73.9933 65.3786 73.3008 63.3163 82.1331C57.9568 83.8844 32.8421 90.9558 29.7135 91.584C28.3689 89.1064 27.2199 84.3188 26.4727 80.9442Z" fill="url(#paint2_linear_134_2440)"/>
<path d="M57.3618 73.9344C57.5209 72.0264 58.367 70.2556 58.9459 68.4308C59.5248 66.606 59.8177 64.5317 58.9194 62.8417C59.7604 65.8631 60.8921 68.9588 63.2073 71.0701C64.0921 71.877 65.1215 72.5109 66.0226 73.2997C66.9236 74.0885 67.7185 75.0902 67.9099 76.2737C68.0202 76.9558 67.8942 77.7191 67.3995 78.2005C67.1288 78.464 66.7748 78.6203 66.4285 78.7713C62.4531 80.5056 56.9109 79.3448 57.3618 73.9344Z" fill="#E8793D"/>
<path d="M40.1445 91.0864L62.2721 75.416C62.2721 75.416 68.0372 76.0823 68.259 84.5248C65.8201 88.0796 46.1903 101.698 46.1903 101.698C46.1903 101.698 43.9973 95.5643 40.1445 91.0864Z" fill="url(#paint3_linear_134_2440)"/>
<path d="M69.7306 78.8745C66.7988 77.4599 66.6635 74.4227 70.6343 71.4287C75.5119 72.1208 101.83 81.5273 105.414 82.8379C107.987 86.9959 106.929 97.4157 97.1974 95.4773C86.8864 91.5123 69.7306 78.8745 69.7306 78.8745Z" fill="url(#paint4_linear_134_2440)"/>
<path d="M74.6312 60.2968C74.4778 63.726 75.2743 67.193 76.9091 70.2097C77.6914 69.4603 78.3298 68.5606 78.7788 67.5739C78.7181 69.535 79.1836 71.51 80.1134 73.2365C81.0817 75.0347 82.542 76.5714 83.2305 78.4948C84.0996 80.923 83.9335 84.9828 80.5947 84.4813C77.611 84.033 73.9974 82.6215 71.2263 81.4249C68.5036 80.2491 65.9151 78.2845 64.9645 75.4711C64.4552 73.9637 64.5125 72.1481 65.5615 70.9531C66.0704 70.373 66.7604 69.991 67.4108 69.5758C70.0808 67.8716 74.4728 63.7907 74.6312 60.2968Z" fill="#E8793D"/>
<path d="M78.6434 92.1964C78.4577 91.968 74.1652 82.0249 74.1652 82.0249H69.5586L67.9453 98.112" fill="url(#paint5_linear_134_2440)"/>
<path d="M62.8203 61.5939L80.7811 99.2882C80.7811 99.2882 88.9852 103.954 89.4288 96.4001C86.1291 90.0069 68.3506 59.1544 68.3506 59.1544C68.3506 59.1544 63.9289 55.8916 62.8203 61.5939Z" fill="url(#paint6_linear_134_2440)"/>
<path d="M61.2528 72.3761C61.7317 72.6835 62.3852 72.5976 62.8661 72.2933C63.347 71.9891 63.6829 71.503 63.9612 71.0062C64.1707 70.6322 64.3579 70.2332 64.3994 69.8065C64.4709 69.0717 64.1046 68.3696 63.7067 67.748C62.529 65.9066 60.6558 63.6262 58.5709 62.7793C56.7677 62.0472 55.1455 62.497 55.277 64.5502C55.385 66.2359 56.3902 68.5051 57.8678 69.0728C58.8749 69.4599 59.3962 68.9708 60.1365 69.991C60.6631 70.717 60.3956 71.8258 61.2528 72.3761Z" fill="#E8793D"/>
<path d="M61.957 93.1266C65.4365 93.1266 68.2616 95.9572 68.2616 99.4434C68.2616 102.93 65.4365 105.76 61.957 105.76C58.4774 105.76 55.6523 102.93 55.6523 99.4434C55.6523 95.9572 58.4774 93.1266 61.957 93.1266Z" fill="#431604"/>
<path d="M56.0977 97.1087C56.4121 96.4324 65.3419 83.3756 66.5954 80.3981C69.9646 78.2005 70.1269 78.7278 71.9247 81.602C72.3771 85.0817 67.7182 102.007 67.7182 102.007" fill="url(#paint7_linear_134_2440)"/>
<path d="M73.4723 89.6602C77.0875 89.6602 80.0228 92.6012 80.0228 96.2233C80.0228 99.8455 77.0875 102.786 73.4723 102.786C69.8571 102.786 66.9219 99.8455 66.9219 96.2233C66.9219 92.6012 69.8571 89.6602 73.4723 89.6602Z" fill="#431604"/>
<path d="M67.9305 68.0961C68.0054 65.6447 68.1361 63.072 67.0594 60.8695C67.1002 61.4603 66.9153 62.291 66.3268 62.2351C65.8478 62.1897 65.6948 61.5723 65.6676 61.0913C65.5964 59.8288 65.5511 58.5656 65.5311 57.3012C63.9816 57.4125 62.5374 58.467 61.9578 59.9112C61.0998 62.0491 62.1096 64.4535 63.2451 66.4574C64.7316 69.0805 66.4675 71.9891 68.6489 74.0923C67.9482 72.147 67.8678 70.1466 67.9305 68.0961Z" fill="#E8793D"/>
<path d="M27.9021 80.7582C30.9677 80.7582 33.4566 83.252 33.4566 86.3234C33.4566 89.3948 30.9677 91.8886 27.9021 91.8886C24.8366 91.8886 22.3477 89.3948 22.3477 86.3234C22.3477 83.252 24.8366 80.7582 27.9021 80.7582Z" fill="#431604"/>
<path d="M43.4617 90.1053C46.8318 90.1053 49.568 92.8468 49.568 96.2233C49.568 99.5999 46.8318 102.341 43.4617 102.341C40.0917 102.341 37.3555 99.5999 37.3555 96.2233C37.3555 92.8468 40.0917 90.1053 43.4617 90.1053Z" fill="#431604"/>
<path d="M64.2757 11.8756C63.9555 12.7418 62.8092 12.5897 63.0429 13.6723C63.1709 14.2658 63.0425 13.9126 63.6991 14.795C63.4431 14.057 63.6191 14.0089 63.8271 13.5598C64.035 13.1108 64.3076 12.421 64.2757 11.8756Z" fill="#E8793D"/>
<path d="M51.9317 23.57C49.2706 24.4746 46.4196 26.2361 48.558 31.0923C50.221 32.3777 50.7914 28.569 52.4544 28.8546C50.8864 26.7598 51.409 25.0459 51.9317 23.57Z" fill="#E8793D"/>
</g>
</g>
<defs>
<linearGradient id="paint0_linear_134_2440" x1="55.0821" y1="75.4865" x2="30.6528" y2="75.3737" gradientUnits="userSpaceOnUse">
<stop offset="0.12" stop-color="#E97A3D"/>
<stop offset="0.33" stop-color="#964820"/>
<stop offset="1" stop-color="#431604"/>
</linearGradient>
<linearGradient id="paint1_linear_134_2440" x1="76.2224" y1="73.5608" x2="94.3224" y2="78.1899" gradientUnits="userSpaceOnUse">
<stop offset="0.12" stop-color="#E97A3D"/>
<stop offset="0.33" stop-color="#964820"/>
<stop offset="1" stop-color="#431604"/>
</linearGradient>
<linearGradient id="paint2_linear_134_2440" x1="63.153" y1="77.7973" x2="36.3674" y2="83.9208" gradientUnits="userSpaceOnUse">
<stop offset="0.12" stop-color="#E97A3D"/>
<stop offset="0.33" stop-color="#964820"/>
<stop offset="1" stop-color="#431604"/>
</linearGradient>
<linearGradient id="paint3_linear_134_2440" x1="65.8443" y1="77.4122" x2="48.0937" y2="91.9045" gradientUnits="userSpaceOnUse">
<stop offset="0.12" stop-color="#E97A3D"/>
<stop offset="0.33" stop-color="#964820"/>
<stop offset="1" stop-color="#431604"/>
</linearGradient>
<linearGradient id="paint4_linear_134_2440" x1="74.6862" y1="77.4122" x2="96.189" y2="87.1261" gradientUnits="userSpaceOnUse">
<stop offset="0.12" stop-color="#E97A3D"/>
<stop offset="0.33" stop-color="#964820"/>
<stop offset="1" stop-color="#431604"/>
</linearGradient>
<linearGradient id="paint5_linear_134_2440" x1="75.4544" y1="83.1892" x2="71.8659" y2="92.7826" gradientUnits="userSpaceOnUse">
<stop offset="0.12" stop-color="#E97A3D"/>
<stop offset="0.33" stop-color="#964820"/>
<stop offset="1" stop-color="#431604"/>
</linearGradient>
<linearGradient id="paint6_linear_134_2440" x1="64.2948" y1="68.5044" x2="87.9388" y2="69.4548" gradientUnits="userSpaceOnUse">
<stop offset="0.12" stop-color="#E97A3D"/>
<stop offset="0.33" stop-color="#964820"/>
<stop offset="1" stop-color="#431604"/>
</linearGradient>
<linearGradient id="paint7_linear_134_2440" x1="69.4044" y1="79.5818" x2="64.5501" y2="92.9248" gradientUnits="userSpaceOnUse">
<stop offset="0.12" stop-color="#E97A3D"/>
<stop offset="0.33" stop-color="#964820"/>
<stop offset="1" stop-color="#431604"/>
</linearGradient>
<clipPath id="clip0_134_2440">
<rect width="133" height="114" fill="white" transform="translate(0.5)"/>
</clipPath>
</defs>
</svg>
