<svg width="29" height="28" viewBox="0 0 29 28" fill="none" xmlns="http://www.w3.org/2000/svg">
<path d="M7.50017 23.3333C7.16961 23.3333 6.89272 23.2213 6.6695 22.9973C6.44628 22.7733 6.33428 22.4964 6.3335 22.1666C6.33272 21.8369 6.44472 21.56 6.6695 21.336C6.89428 21.112 7.17117 21 7.50017 21H21.5002C21.8307 21 22.108 21.112 22.332 21.336C22.556 21.56 22.6676 21.8369 22.6668 22.1666C22.6661 22.4964 22.5541 22.7737 22.3308 22.9985C22.1076 23.2233 21.8307 23.3349 21.5002 23.3333H7.50017ZM8.31683 19.25C7.75294 19.25 7.25244 19.0653 6.81533 18.6958C6.37822 18.3264 6.11067 17.8597 6.01267 17.2958L4.846 9.88748C4.80711 9.88748 4.76355 9.89254 4.71533 9.90265C4.66711 9.91276 4.62317 9.91743 4.5835 9.91665C4.09739 9.91665 3.68439 9.7467 3.3445 9.40682C3.00461 9.06693 2.83428 8.65354 2.8335 8.16665C2.83272 7.67976 3.00305 7.26676 3.3445 6.92765C3.68594 6.58854 4.09894 6.4182 4.5835 6.41665C5.06805 6.41509 5.48144 6.58543 5.82367 6.92765C6.16589 7.26987 6.33583 7.68287 6.3335 8.16665C6.3335 8.30276 6.31872 8.42915 6.28917 8.54582C6.25961 8.66248 6.22578 8.76943 6.18767 8.86665L9.8335 10.5L13.4793 5.51248C13.2654 5.35693 13.0904 5.15276 12.9543 4.89998C12.8182 4.6472 12.7502 4.37498 12.7502 4.08332C12.7502 3.5972 12.9205 3.18382 13.2612 2.84315C13.6018 2.50248 14.0148 2.33254 14.5002 2.33332C14.9855 2.33409 15.3989 2.50443 15.7403 2.84432C16.0818 3.1842 16.2517 3.5972 16.2502 4.08332C16.2502 4.37498 16.1821 4.6472 16.046 4.89998C15.9099 5.15276 15.7349 5.35693 15.521 5.51248L19.1668 10.5L22.8127 8.86665C22.7738 8.76943 22.7396 8.66248 22.71 8.54582C22.6804 8.42915 22.6661 8.30276 22.6668 8.16665C22.6668 7.68054 22.8372 7.26715 23.1778 6.92648C23.5185 6.58582 23.9315 6.41587 24.4168 6.41665C24.9022 6.41743 25.3156 6.58776 25.657 6.92765C25.9984 7.26754 26.1684 7.68054 26.1668 8.16665C26.1653 8.65276 25.9953 9.06615 25.657 9.40682C25.3187 9.74748 24.9053 9.91743 24.4168 9.91665C24.3779 9.91665 24.3344 9.91198 24.2862 9.90265C24.2379 9.89332 24.194 9.88826 24.1543 9.88748L22.9877 17.2958C22.8904 17.8597 22.6233 18.3264 22.1862 18.6958C21.7491 19.0653 21.2482 19.25 20.6835 19.25H8.31683Z" fill="#E2AF73"/>
</svg>
