<svg width="29" height="28" viewBox="0 0 29 28" fill="none" xmlns="http://www.w3.org/2000/svg">
<path fill-rule="evenodd" clip-rule="evenodd" d="M14.5 24.5C15.8789 24.5 17.2443 24.2284 18.5182 23.7007C19.7921 23.1731 20.9496 22.3996 21.9246 21.4246C22.8996 20.4496 23.6731 19.2921 24.2007 18.0182C24.7284 16.7443 25 15.3789 25 14C25 12.6211 24.7284 11.2557 24.2007 9.98182C23.6731 8.70791 22.8996 7.55039 21.9246 6.57538C20.9496 5.60036 19.7921 4.82694 18.5182 4.29926C17.2443 3.77159 15.8789 3.5 14.5 3.5C11.7152 3.5 9.04451 4.60625 7.07538 6.57538C5.10625 8.54451 4 11.2152 4 14C4 16.7848 5.10625 19.4555 7.07538 21.4246C9.04451 23.3938 11.7152 24.5 14.5 24.5ZM14.2293 18.2467L20.0627 11.2467L18.2707 9.75333L13.254 15.7722L10.6582 13.1752L9.0085 14.8248L12.5085 18.3248L13.4115 19.2278L14.2293 18.2467Z" fill="#0057FF"/>
</svg>
