<svg width="68" height="94" viewBox="0 0 68 94" fill="none" xmlns="http://www.w3.org/2000/svg">
<path d="M8.21611 78.8946V92.7891H5.28797V78.8946H8.21611ZM13.5002 83.636L1.46797 90.583L0.00390625 88.0477L12.0361 81.1007L13.5002 83.636ZM12.0361 90.583L0.00390625 83.636L1.46797 81.1007L13.5002 88.0477L12.0361 90.583Z" fill="#00005E"/>
<path d="M24.077 77.847V93.8366H21.1488V77.847H24.077ZM30.2687 83.1126L16.4211 91.1076L14.957 88.5711L28.8047 80.5761L30.2687 83.1126ZM28.8047 91.1076L14.957 83.1126L16.4211 80.5761L30.2687 88.5711L28.8047 91.1076Z" fill="#00005E"/>
<path d="M38.7215 78.9204V92.7633H35.7934V78.9204H38.7215ZM43.9836 83.6494L31.9953 90.5708L30.5312 88.0343L42.5195 81.1129L43.9836 83.6494ZM42.5195 90.5708L30.5312 83.6494L31.9953 81.1129L43.9836 88.0343L42.5195 90.5708Z" fill="#00005E"/>
<path d="M53.3605 84.3485V87.3352H50.4323V84.3485H53.3605ZM53.9217 86.3628L51.3352 87.8562L49.8711 85.3209L52.4576 83.8275L53.9217 86.3628ZM52.4576 87.8562L49.8711 86.3628L51.3352 83.8275L53.9217 85.3209L52.4576 87.8562Z" fill="#00005E"/>
<path d="M23.8359 34.3412C23.8359 25.6521 23.8359 16.4206 23.8359 16.4206C23.8359 9.01378 29.8497 3 37.2566 3C44.6634 3 50.6772 9.01378 50.6772 16.4206V49.3621C50.6772 50.9482 50.4014 52.4704 49.8954 53.8832" stroke="#00AEFF" stroke-width="4.05475" stroke-linecap="round"/>
<path d="M37.2556 74.0504H37.2555C24.8972 74.0504 14.8789 64.032 14.8789 51.6737L14.8909 35.8056L59.6264 35.8115L59.6323 51.6737C59.6323 64.032 49.6138 74.0504 37.2556 74.0504ZM59.6323 35.3214C59.6323 37.6964 57.704 39.6247 55.3291 39.6247H19.1821C16.8072 39.6247 14.8789 37.6964 14.8789 35.3214C14.8789 32.9465 16.8072 31.0182 19.1821 31.0182H55.3291C57.704 31.0182 59.6323 32.9465 59.6323 35.3214Z" fill="#00005E"/>
<path d="M40.0759 49.666V59.0628C40.0759 60.6186 38.8127 61.8818 37.2568 61.8818C35.701 61.8818 34.4378 60.6186 34.4378 59.0628V49.666C34.4378 48.1102 35.701 46.847 37.2568 46.847C38.8127 46.847 40.0759 48.1102 40.0759 49.666ZM37.2568 44.7901C39.5782 44.7901 41.4629 46.6748 41.4629 48.9961C41.4629 51.3175 39.5782 53.2022 37.2568 53.2022C34.9355 53.2022 33.0508 51.3175 33.0508 48.9961C33.0508 46.6748 34.9355 44.7901 37.2568 44.7901Z" fill="#00AEFF"/>
</svg>
