<svg width="120" height="14" viewBox="0 0 120 14" fill="none" xmlns="http://www.w3.org/2000/svg">
<path d="M115.158 13.9816C113.464 13.9816 112.209 13.5056 111.394 12.5537C110.578 11.5895 110.17 10.2791 110.17 8.6226C110.17 7.49765 110.38 6.52723 110.8 5.71133C111.22 4.89543 111.808 4.27733 112.562 3.85702C113.328 3.42434 114.224 3.20801 115.25 3.20801C116.548 3.20801 117.537 3.5356 118.217 4.19079C118.91 4.84599 119.268 5.77314 119.293 6.97226C119.293 7.76344 119.237 8.40009 119.126 8.88221H113.322C113.384 9.93299 113.637 10.7365 114.082 11.2928C114.54 11.8367 115.176 12.1087 115.992 12.1087C116.449 12.1087 116.925 12.0345 117.42 11.8862C117.927 11.7255 118.335 11.5462 118.644 11.3484L119.163 12.4796C118.842 12.8381 118.291 13.178 117.513 13.4994C116.746 13.8209 115.961 13.9816 115.158 13.9816ZM116.344 7.65836L116.363 6.87955C116.363 6.10074 116.258 5.50736 116.048 5.09941C115.838 4.69146 115.479 4.48748 114.972 4.48748C114.453 4.48748 114.051 4.71618 113.767 5.17358C113.483 5.61862 113.328 6.44688 113.303 7.65836H116.344Z" fill="#0057FF"/>
<path d="M105.938 13.9449C105.122 13.9449 104.517 13.7594 104.121 13.3886C103.738 13.0053 103.546 12.4181 103.546 11.627V5.02562H102.415V3.95011L102.786 3.80177C103.083 3.70287 103.342 3.5978 103.565 3.48654C103.812 3.25166 104.01 2.94261 104.158 2.55938C104.344 2.11434 104.548 1.49006 104.77 0.686523H106.495L106.606 3.46799H109.257V5.02562H106.643V9.93955C106.643 10.6195 106.661 11.0954 106.699 11.3674C106.736 11.6393 106.804 11.8186 106.903 11.9051C107.014 11.9793 107.212 12.0164 107.496 12.0164C108.077 12.0164 108.627 11.9175 109.146 11.7197L109.536 12.8879C109.189 13.1722 108.676 13.4195 107.997 13.6296C107.317 13.8398 106.631 13.9449 105.938 13.9449Z" fill="#0057FF"/>
<path d="M91.9697 10.8107C91.9697 9.72284 92.5198 8.8884 93.62 8.30738C94.7326 7.72636 96.1913 7.42967 97.9961 7.41731V7.04645C97.9961 6.60141 97.9467 6.24909 97.8478 5.98949C97.7489 5.72989 97.5697 5.53827 97.3101 5.41465C97.0505 5.27867 96.6672 5.21068 96.1604 5.21068C95.5547 5.21068 95.0107 5.28485 94.5286 5.4332C94.0589 5.56918 93.5644 5.75461 93.0452 5.98949L92.4148 4.65438C92.6125 4.49368 92.934 4.30206 93.379 4.07955C93.824 3.84467 94.3556 3.64687 94.9737 3.48617C95.6041 3.3131 96.2593 3.22656 96.9392 3.22656C97.9281 3.22656 98.7008 3.35636 99.257 3.61597C99.8257 3.87557 100.227 4.27734 100.462 4.82127C100.71 5.3652 100.833 6.10693 100.833 7.04645V12.5538H101.797V13.722C101.513 13.7838 101.118 13.8456 100.611 13.9074C100.104 13.9692 99.6712 14.0001 99.3127 14.0001C98.8429 14.0001 98.5277 13.9321 98.367 13.7962C98.2186 13.6602 98.1445 13.3882 98.1445 12.9803V12.5538C97.8354 12.9246 97.4213 13.2584 96.9021 13.5551C96.3829 13.8394 95.7834 13.9816 95.1035 13.9816C94.5225 13.9816 93.9909 13.858 93.5088 13.6107C93.039 13.3511 92.662 12.9864 92.3777 12.5167C92.1057 12.0346 91.9697 11.4659 91.9697 10.8107ZM96.5498 12.2756C96.7723 12.2756 97.0195 12.2138 97.2915 12.0902C97.5635 11.9542 97.7983 11.7935 97.9961 11.6081V8.6597C97.0319 8.6597 96.3149 8.83277 95.8452 9.17891C95.3878 9.52505 95.1591 9.97008 95.1591 10.514C95.1591 11.0703 95.2827 11.503 95.5299 11.812C95.7772 12.1211 96.1171 12.2756 96.5498 12.2756Z" fill="#0057FF"/>
<path d="M75.1849 1.55762L73.2194 1.29802V0H79.5239L81.4895 7.75103L81.9345 9.80932L82.3053 7.75103L84.2523 0H90.5198V1.29802L88.4986 1.55762L89.9821 12.3497L91.4099 12.5537V13.7775H85.1609V12.5537L86.7371 12.3497L85.9583 4.35764L85.6245 1.09405L84.9755 4.06095L82.5464 13.2398H80.1173L77.5213 4.32055L76.6683 1.0755L76.4458 4.35764L75.7597 12.3497L77.6511 12.5537V13.7775H72.2922V12.5537L73.8313 12.3683L75.1849 1.55762Z" fill="#0057FF"/>
<path d="M56.87 5.41465L55.776 5.08088V3.63451L59.1508 3.22656H59.2064L59.6885 3.61597V4.30206L59.67 4.72856C60.1027 4.32061 60.6528 3.97447 61.3203 3.69014C61.9878 3.40581 62.6863 3.26365 63.4156 3.26365C64.1573 3.26365 64.7384 3.39963 65.1587 3.6716C65.5913 3.9312 65.9004 4.35151 66.0858 4.93253C66.2836 5.51355 66.3825 6.30472 66.3825 7.30605V12.3869L67.4209 12.5352V13.7776H62.3772V12.5538L63.2858 12.3869V7.32459C63.2858 6.73121 63.2426 6.27382 63.156 5.9524C63.0819 5.61863 62.9459 5.37757 62.7481 5.22922C62.5503 5.08088 62.266 5.0067 61.8951 5.0067C61.3265 5.0067 60.6837 5.27249 59.9667 5.80406V12.3869L60.9865 12.5538V13.7776H55.8502V12.5538L56.87 12.3869V5.41465Z" fill="#0057FF"/>
<path d="M44.9966 10.8107C44.9966 9.72284 45.5467 8.8884 46.6469 8.30738C47.7595 7.72636 49.2182 7.42967 51.023 7.41731V7.04645C51.023 6.60141 50.9735 6.24909 50.8746 5.98949C50.7757 5.72989 50.5965 5.53827 50.3369 5.41465C50.0773 5.27867 49.6941 5.21068 49.1873 5.21068C48.5815 5.21068 48.0376 5.28485 47.5555 5.4332C47.0857 5.56918 46.5913 5.75461 46.0721 5.98949L45.4416 4.65438C45.6394 4.49368 45.9608 4.30206 46.4058 4.07955C46.8509 3.84467 47.3824 3.64687 48.0005 3.48617C48.631 3.3131 49.2861 3.22656 49.9661 3.22656C50.955 3.22656 51.7276 3.35636 52.2839 3.61597C52.8525 3.87557 53.2543 4.27734 53.4892 4.82127C53.7364 5.3652 53.86 6.10693 53.86 7.04645V12.5538H54.8243V13.722C54.5399 13.7838 54.1444 13.8456 53.6375 13.9074C53.1307 13.9692 52.698 14.0001 52.3395 14.0001C51.8698 14.0001 51.5546 13.9321 51.3938 13.7962C51.2455 13.6602 51.1713 13.3882 51.1713 12.9803V12.5538C50.8623 12.9246 50.4482 13.2584 49.929 13.5551C49.4098 13.8394 48.8102 13.9816 48.1303 13.9816C47.5493 13.9816 47.0177 13.858 46.5356 13.6107C46.0659 13.3511 45.6888 12.9864 45.4045 12.5167C45.1326 12.0346 44.9966 11.4659 44.9966 10.8107ZM49.5766 12.2756C49.7992 12.2756 50.0464 12.2138 50.3184 12.0902C50.5903 11.9542 50.8252 11.7935 51.023 11.6081V8.6597C50.0588 8.6597 49.3418 8.83277 48.872 9.17891C48.4146 9.52505 48.1859 9.97008 48.1859 10.514C48.1859 11.0703 48.3096 11.503 48.5568 11.812C48.804 12.1211 49.144 12.2756 49.5766 12.2756Z" fill="#0057FF"/>
<path d="M39.773 13.9816C38.0795 13.9816 36.8247 13.5056 36.0089 12.5537C35.193 11.5895 34.785 10.2791 34.785 8.6226C34.785 7.49765 34.9952 6.52723 35.4155 5.71133C35.8358 4.89543 36.423 4.27733 37.1771 3.85702C37.9435 3.42434 38.8397 3.20801 39.8658 3.20801C41.1638 3.20801 42.1527 3.5356 42.8326 4.19079C43.5249 4.84599 43.8834 5.77314 43.9081 6.97226C43.9081 7.76344 43.8525 8.40009 43.7412 8.88221H37.9373C37.9991 9.93299 38.2525 10.7365 38.6976 11.2928C39.155 11.8367 39.7916 12.1087 40.6075 12.1087C41.0649 12.1087 41.5408 12.0345 42.0353 11.8862C42.5421 11.7255 42.95 11.5462 43.2591 11.3484L43.7783 12.4796C43.4569 12.8381 42.9068 13.178 42.128 13.4994C41.3615 13.8209 40.5766 13.9816 39.773 13.9816ZM40.9598 7.65836L40.9783 6.87955C40.9783 6.10074 40.8733 5.50736 40.6631 5.09941C40.4529 4.69146 40.0945 4.48748 39.5876 4.48748C39.0684 4.48748 38.6667 4.71618 38.3823 5.17358C38.098 5.61862 37.9435 6.44688 37.9188 7.65836H40.9598Z" fill="#0057FF"/>
<path d="M26.0988 12.5537L27.2299 12.3869V5.41464L26.1358 5.08086V3.6345L29.2139 3.22655H29.2696L29.7888 3.61596V4.06099L29.7331 5.60007H29.7888C29.8753 5.31574 30.0731 4.98815 30.3821 4.61729C30.6912 4.23406 31.0806 3.90647 31.5503 3.6345C32.0324 3.35017 32.5516 3.20801 33.1079 3.20801C33.4293 3.20801 33.6766 3.25127 33.8496 3.33781V6.56432C33.6518 6.41597 33.4355 6.29853 33.2006 6.212C32.9781 6.12546 32.6876 6.08219 32.3291 6.08219C31.8841 6.08219 31.4823 6.144 31.1238 6.26762C30.7654 6.37888 30.481 6.50869 30.2709 6.65703V12.3869L32.3106 12.5723V13.7776H26.0988V12.5537Z" fill="#0057FF"/>
<path d="M14.2373 8.67823C14.2373 7.49147 14.4722 6.49014 14.9419 5.67425C15.4117 4.84599 16.0421 4.22788 16.8333 3.81993C17.6368 3.41198 18.5145 3.20801 19.4664 3.20801C21.024 3.20801 22.2416 3.67777 23.1193 4.61729C24.0094 5.54444 24.4544 6.84246 24.4544 8.51135C24.4544 9.73519 24.2195 10.7551 23.7498 11.571C23.28 12.3869 22.6496 12.9926 21.8584 13.3882C21.0672 13.7838 20.1834 13.9816 19.2068 13.9816C17.6615 13.9816 16.4439 13.518 15.5538 12.5908C14.6762 11.6513 14.2373 10.3471 14.2373 8.67823ZM19.3922 12.6836C19.9856 12.6836 20.4244 12.3683 20.7087 11.7379C21.0054 11.095 21.1538 10.0937 21.1538 8.73386C21.1538 7.2875 21.0116 6.22436 20.7273 5.54444C20.4553 4.85217 19.9918 4.50603 19.3366 4.50603C18.1251 4.50603 17.5194 5.82259 17.5194 8.45572C17.5194 9.88972 17.6677 10.9529 17.9644 11.6451C18.2611 12.3374 18.737 12.6836 19.3922 12.6836Z" fill="#0057FF"/>
<path d="M9.75351 13.7775C9.58044 13.7775 9.36411 13.555 9.10451 13.11C8.84491 12.6526 8.45551 11.9109 7.93631 10.8848C7.13279 9.20358 6.5147 8.07244 6.08204 7.49143L4.58007 9.21594V12.3683L6.11912 12.5537V13.7775H0V12.5537L1.42779 12.3497V1.55762L0 1.29802V0H5.95224V1.29802L4.58007 1.55762V7.32454L9.10451 1.55762L7.60254 1.29802V0H12.8872V1.27948L11.2555 1.53908L7.91777 5.32188C8.3628 5.71747 8.82019 6.28612 9.28994 7.02785C9.77205 7.75721 10.3531 8.72145 11.033 9.92058C11.4903 10.7241 11.8303 11.3113 12.0528 11.6822C12.2877 12.053 12.4731 12.2756 12.6091 12.3497L13.4992 12.5537V13.7775H9.75351Z" fill="#0057FF"/>
</svg>
