<svg width="62" height="63" viewBox="0 0 62 63" fill="none" xmlns="http://www.w3.org/2000/svg">
<path d="M30.9995 62.0292C48.1206 62.0292 62 48.1435 62 31.0146C62 13.8857 48.1206 0 30.9995 0C13.8784 0 -0.000976562 13.8857 -0.000976562 31.0146C-0.000976562 48.1435 13.8784 62.0292 30.9995 62.0292Z" fill="#9FD873"/>
<path d="M47.8736 19.4693C47.8143 19.8483 47.6241 20.2124 47.2941 20.4874C39.4309 27.0305 33.67 35.8534 27.9912 46.7701C27.6212 47.4808 26.8889 47.9322 26.0921 48.0134C25.2779 48.0972 24.468 48.2413 23.6755 48.4464C22.5942 48.725 21.4606 48.2483 20.9029 47.2808C18.6277 43.3422 15.643 39.8139 12.1346 36.9195C11.6049 36.4829 11.4923 35.7197 11.8702 35.147C11.8842 35.1243 11.899 35.1025 11.9138 35.0798C13.9264 32.0675 18.2987 31.9418 20.4901 34.8266C21.5697 36.2463 22.6833 37.6905 23.6887 39.3162C28.7252 31.3743 37.0038 21.9271 45.4929 17.7248C45.9737 17.4864 46.541 17.4925 47.0158 17.7457C47.6773 18.0994 47.9757 18.8066 47.8736 19.4693Z" fill="#329B4B"/>
</svg>
