<svg width="37" height="36" viewBox="0 0 37 36" fill="none" xmlns="http://www.w3.org/2000/svg">
<rect x="0.5" width="36" height="36" rx="18" fill="#0057FF"/>
<path d="M13.3884 10.5834C13.2932 10.5297 13.1848 10.5009 13.0742 10.5C12.9635 10.4991 12.8546 10.5261 12.7585 10.5781C12.6624 10.6302 12.5824 10.7056 12.5268 10.7966C12.4712 10.8876 12.4419 10.9909 12.4419 11.0962V24.9038C12.4419 25.0091 12.4712 25.1124 12.5268 25.2034C12.5824 25.2944 12.6624 25.3698 12.7585 25.4219C12.8546 25.4739 12.9635 25.5009 13.0742 25.5C13.1848 25.4991 13.2932 25.4703 13.3884 25.4166L25.6349 18.5128C25.7285 18.46 25.806 18.385 25.8598 18.2951C25.9136 18.2051 25.9419 18.1035 25.9419 18C25.9419 17.8965 25.9136 17.7949 25.8598 17.7049C25.806 17.615 25.7285 17.54 25.6349 17.4872L13.3884 10.5834Z" fill="white"/>
</svg>
