<svg width="120" height="35" viewBox="0 0 120 35" fill="none" xmlns="http://www.w3.org/2000/svg">
<path d="M29.7767 2.99591L1.09915 31.6176C0.106037 32.6087 0.846933 34.2456 2.28863 34.2456H118.168C119.603 34.2456 120.346 32.6208 119.366 31.6264L88.7909 3.00499C88.4806 2.6905 88.0469 2.51192 87.5928 2.51192H30.9659C30.5162 2.51192 30.0865 2.68692 29.7767 2.99591Z" fill="#AF0A13"/>
<path d="M113.976 24.6154L99.409 18.2691L18.6544 19.2959L6.45247 24.6154L6.34766 30.9438H114.08L113.976 24.6154Z" fill="#C2B1E3"/>
<path d="M113.976 24.6154C113.976 24.6154 92.3298 4.51115 90.0068 2.19991C82.7781 0.746299 77.5929 0.883872 72.5527 1.02145C65.2101 1.22175 62.382 1.7781 60.1696 2.19991C56.6977 0.879195 45.5502 0.90671 40.9409 0.90671C36.3315 0.90671 28.4997 2.19991 28.4997 2.19991L6.45312 24.6154C6.45312 24.6154 27.7566 22.0136 34.8212 22.0136C41.8859 22.0136 60.1696 24.6154 60.1696 24.6154C60.1696 24.6154 68.0199 22.5977 77.1007 22.5977C86.1814 22.5977 113.976 24.6154 113.976 24.6154Z" fill="url(#paint0_linear_223_5826)"/>
<defs>
<linearGradient id="paint0_linear_223_5826" x1="23.6331" y1="8.38165" x2="70.9059" y2="31.917" gradientUnits="userSpaceOnUse">
<stop offset="0.13" stop-color="white"/>
<stop offset="0.57" stop-color="#D8DBF1"/>
<stop offset="1" stop-color="#B1B7E3"/>
</linearGradient>
</defs>
</svg>
