
<svg width="32" height="32" viewBox="0 0 32 32" fill="none" xmlns="http://www.w3.org/2000/svg">
<path d="M19.2002 4.80959C19.2002 3.41279 17.5362 2.68639 16.5122 3.63679L10.317 9.38559C10.1692 9.52314 9.97489 9.59973 9.773 9.59999H5.6002C4.96368 9.59999 4.35323 9.85285 3.90314 10.3029C3.45305 10.753 3.2002 11.3635 3.2002 12V20C3.2002 20.6365 3.45305 21.247 3.90314 21.6971C4.35323 22.1471 4.96368 22.4 5.6002 22.4H9.7714C9.97307 22.3998 10.1674 22.4758 10.3154 22.6128L16.5122 28.3632C17.5362 29.312 19.2002 28.5872 19.2002 27.1904V4.80959ZM22.5266 20.6928C22.4355 20.6404 22.3556 20.5706 22.2915 20.4873C22.2274 20.404 22.1803 20.3089 22.153 20.2074C22.1256 20.1059 22.1185 20 22.1321 19.8958C22.1457 19.7916 22.1797 19.6911 22.2322 19.6C22.8641 18.5055 23.1968 17.2639 23.1968 16C23.1968 14.7361 22.8641 13.4945 22.2322 12.4C22.1743 12.3089 22.1354 12.2071 22.1179 12.1007C22.1004 11.9942 22.1046 11.8853 22.1303 11.7805C22.156 11.6757 22.2026 11.5772 22.2673 11.4908C22.332 11.4045 22.4136 11.3322 22.507 11.2782C22.6004 11.2242 22.7038 11.1897 22.8109 11.1766C22.918 11.1636 23.0266 11.1724 23.1302 11.2025C23.2338 11.2326 23.3303 11.2833 23.4138 11.3516C23.4974 11.4199 23.5662 11.5044 23.6162 11.6C24.3888 12.9376 24.7957 14.4551 24.796 15.9998C24.7963 17.5445 24.3899 19.0621 23.6178 20.4C23.5117 20.5833 23.3373 20.7171 23.1327 20.7719C22.9282 20.8268 22.7102 20.7984 22.5266 20.6928Z" fill="white"/>
</svg>
