<svg width="22" height="22" viewBox="0 0 22 22" fill="none" xmlns="http://www.w3.org/2000/svg">
<path d="M8.39014 4.95734C9.55156 2.87468 10.1318 1.83334 10.9999 1.83334C11.868 1.83334 12.4482 2.87468 13.6096 4.95734L13.9103 5.49634C14.2403 6.08851 14.4053 6.38459 14.662 6.57984C14.9186 6.77509 15.2395 6.84751 15.8811 6.99234L16.4641 7.12434C18.7191 7.63493 19.8457 7.88976 20.1143 8.75234C20.382 9.61401 19.6138 10.5133 18.0766 12.3108L17.6787 12.7756C17.2424 13.2862 17.0233 13.5419 16.9252 13.8573C16.8271 14.1735 16.8601 14.5145 16.9261 15.1956L16.9866 15.8162C17.2186 18.2151 17.335 19.4141 16.6328 19.9467C15.9306 20.4793 14.8746 19.9934 12.7645 19.0218L12.2172 18.7706C11.6177 18.4938 11.318 18.3563 10.9999 18.3563C10.6818 18.3563 10.3821 18.4938 9.78256 18.7706L9.23622 19.0218C7.12514 19.9934 6.06914 20.4793 5.36789 19.9476C4.66481 19.4141 4.78122 18.2151 5.01314 15.8162L5.07364 15.1965C5.13964 14.5145 5.17264 14.1735 5.07364 13.8582C4.97647 13.5419 4.75739 13.2862 4.32106 12.7765L3.92322 12.3108C2.38597 10.5142 1.61781 9.61493 1.88547 8.75234C2.15314 7.88976 3.28156 7.63401 5.53656 7.12434L6.11956 6.99234C6.76031 6.84751 7.08022 6.77509 7.33781 6.57984C7.59539 6.38459 7.75947 6.08851 8.08947 5.49634L8.39014 4.95734Z" fill="#87CEEB"/>
</svg>
