<svg width="94" height="94" viewBox="0 0 94 94" fill="none" xmlns="http://www.w3.org/2000/svg">
<g clip-path="url(#clip0_254_6680)">
<mask id="mask0_254_6680" style="mask-type:luminance" maskUnits="userSpaceOnUse" x="0" y="0" width="94" height="94">
<path d="M94 0H0V94H94V0Z" fill="white"/>
</mask>
<g mask="url(#mask0_254_6680)">
<path d="M79.3019 82.1631H14.5938V41.4792L46.9916 11.9918L79.3019 41.4792V82.1631Z" fill="#C7C7C7"/>
<path d="M47.0071 12.7206L14.5938 41.4792L46.914 41.7967L79.3019 41.4792L47.0071 12.7206Z" fill="#C8C8C8"/>
<path d="M72.4774 67.575H21.418V16.5156H72.4774V67.575Z" fill="#F4F4F4"/>
<path d="M65.1939 67.575H28.7031V23.7438H65.1939V67.575Z" fill="white"/>
<path d="M55.5627 37.044C55.5627 41.8021 51.7054 45.6594 46.9471 45.6594C42.1891 45.6594 38.332 41.8021 38.332 37.044C38.332 32.286 42.1891 28.4287 46.9471 28.4287C51.7054 28.4287 55.5627 32.286 55.5627 37.044Z" fill="#5083F1"/>
<path d="M49.9621 34.9766C49.9621 36.6425 48.6118 37.9928 46.9459 37.9928C45.2802 37.9928 43.9297 36.6425 43.9297 34.9766C43.9297 33.3106 45.2802 31.9603 46.9459 31.9603C48.6118 31.9603 49.9621 33.3106 49.9621 34.9766Z" fill="white"/>
<path d="M50.6628 39.2225H43.23C41.9337 39.2225 40.8828 40.2735 40.8828 41.5697V43.164C42.4397 44.7065 44.5817 45.6597 46.9465 45.6597C49.3113 45.6597 51.4531 44.7065 53.0098 43.164V41.5697C53.0098 40.2735 51.9591 39.2225 50.6628 39.2225Z" fill="white"/>
<path d="M37.3466 52.6663L38.1437 53.0978L37.7851 53.6973L36.9807 53.2221L36.9955 54.1069H36.3081L36.3154 53.2148L35.511 53.6973L35.1602 53.0978L35.9573 52.6663L35.1602 52.2276L35.511 51.6281L36.3154 52.1106L36.3081 51.2185H36.9955L36.9807 52.1106L37.7851 51.6281L38.1437 52.2276L37.3466 52.6663Z" fill="#B3B3B3"/>
<path d="M42.4948 52.6663L43.2917 53.0978L42.9335 53.6973L42.1291 53.2221L42.1437 54.1069H41.4566L41.4639 53.2148L40.6594 53.6973L40.3086 53.0978L41.1055 52.6663L40.3086 52.2276L40.6594 51.6281L41.4639 52.1106L41.4566 51.2185H42.1437L42.1291 52.1106L42.9335 51.6281L43.2917 52.2276L42.4948 52.6663Z" fill="#B3B3B3"/>
<path d="M47.6437 52.6663L48.4406 53.0978L48.0825 53.6973L47.2778 53.2221L47.2926 54.1069H46.6052L46.6125 53.2148L45.8081 53.6973L45.457 53.0978L46.2542 52.6663L45.457 52.2276L45.8081 51.6281L46.6125 52.1106L46.6052 51.2185H47.2926L47.2778 52.1106L48.0825 51.6281L48.4406 52.2276L47.6437 52.6663Z" fill="#B3B3B3"/>
<path d="M52.7882 52.6663L53.5851 53.0978L53.2267 53.6973L52.4223 53.2221L52.4369 54.1069H51.7498L51.7571 53.2148L50.9527 53.6973L50.6016 53.0978L51.3987 52.6663L50.6016 52.2276L50.9527 51.6281L51.7571 52.1106L51.7498 51.2185H52.4369L52.4223 52.1106L53.2267 51.6281L53.5851 52.2276L52.7882 52.6663Z" fill="#B3B3B3"/>
<path d="M57.9367 52.6663L58.7336 53.0978L58.3752 53.6973L57.5708 53.2221L57.5854 54.1069H56.8982L56.9055 53.2148L56.1011 53.6973L55.75 53.0978L56.5471 52.6663L55.75 52.2276L56.1011 51.6281L56.9055 52.1106L56.8982 51.2185H57.5854L57.5708 52.1106L58.3752 51.6281L58.7336 52.2276L57.9367 52.6663Z" fill="#B3B3B3"/>
<path d="M79.3019 82.1628H14.5938V41.4791L46.9478 61.8212L79.3019 41.4791V82.1628Z" fill="#E9E9E9"/>
<path d="M79.3019 82.1628H14.5938L46.9478 61.8209L79.3019 82.1628Z" fill="#F2F2F2"/>
</g>
</g>
<defs>
<clipPath id="clip0_254_6680">
<rect width="94" height="94" fill="white"/>
</clipPath>
</defs>
</svg>
