<svg width="98" height="99" viewBox="0 0 98 99" fill="none" xmlns="http://www.w3.org/2000/svg">
<g clip-path="url(#clip0_137_3388)">
<mask id="mask0_137_3388" style="mask-type:luminance" maskUnits="userSpaceOnUse" x="0" y="0" width="98" height="99">
<path d="M98 0.5H0V98.5H98V0.5Z" fill="white"/>
</mask>
<g mask="url(#mask0_137_3388)">
<path d="M74.4787 54.717C74.4787 54.717 84.6168 38.0558 79.8576 36.4879C76.083 35.2443 69.2931 47.522 69.2931 47.522C69.2931 47.522 66.8751 52.6721 68.4071 54.1427C72.5973 58.165 74.4787 54.717 74.4787 54.717Z" fill="#FDCC4C"/>
<path d="M68.5903 48.2069C68.5903 48.2069 76.3962 26.9844 71.5342 25.6691C66.5954 24.333 59.6026 43.9473 59.6026 43.9473C59.6026 43.9473 57.1978 49.6481 61.9712 50.6589C67.6832 51.8684 68.5903 48.2069 68.5903 48.2069Z" fill="#FDCC4C"/>
<path d="M59.2804 44.5213C59.2804 44.5213 66.5756 20.4266 61.5305 19.503C56.4854 18.5792 49.477 42.4373 49.477 42.4373C49.477 42.4373 48.096 47.1841 53.1521 48.1896C58.2483 49.2033 59.2804 44.5213 59.2804 44.5213Z" fill="#FDCC4C"/>
<path d="M49.41 42.8521C49.41 42.8521 53.3859 24.2541 48.288 23.7115C45.4587 23.4104 41.9522 33.8893 39.3922 43.2742C39.3922 43.2742 38.5272 46.5346 43.0387 47.1795C48.6498 47.9815 49.41 42.8521 49.41 42.8521Z" fill="#FDCC4C"/>
<path d="M68.5986 47.7553L59.2992 44.2271C59.2992 44.2271 52.7375 42.802 49.3995 42.6629C47.6964 36.8756 40.3547 38.7239 39.4001 43.3979C38.4454 48.0719 36.3536 57.8442 36.3536 57.8442L30.7957 80.3619C30.7957 80.3619 39.7499 83.9427 48.1132 84.7194C62.6744 86.0719 69.7383 83.9789 69.7383 83.9789C69.7383 83.9789 73.317 63.7921 74.4111 54.454C75.5053 45.116 68.5986 47.7553 68.5986 47.7553Z" fill="#FDCC4C"/>
<path d="M44.9095 43.0606C44.9095 43.0606 61.4625 42.8207 70.4458 50.2343" stroke="black" stroke-width="4" stroke-linecap="round" stroke-linejoin="round"/>
<path d="M37.006 58.0153C35.8815 56.6145 30.4596 42.6146 26.234 46.2491C22.0085 49.8838 30.7957 80.3621 30.7957 80.3621C30.7957 80.3621 37.6971 75.1291 39.086 72.837C42.7661 66.7647 37.006 58.0153 37.006 58.0153Z" fill="#FDCC4C"/>
<path d="M38.3708 60.607C38.3708 60.607 49.6544 61.5356 50.7659 73.2773" stroke="black" stroke-width="4" stroke-linecap="round" stroke-linejoin="round"/>
<path d="M25.3603 12.7009C26.206 16.3305 29.0401 19.1647 32.6698 20.0104C29.0401 20.8564 26.206 23.6903 25.3603 27.3199C24.5145 23.6903 21.6804 20.8564 18.0508 20.0104C21.6804 19.1647 24.5145 16.3305 25.3603 12.7009Z" fill="#FDCC4C"/>
<path d="M18.831 27.3609C19.1464 28.7143 20.2031 29.7711 21.5565 30.0864C20.2031 30.4018 19.1464 31.4586 18.831 32.8119C18.5156 31.4586 17.4588 30.4018 16.1055 30.0864C17.4588 29.7711 18.5156 28.7143 18.831 27.3609Z" fill="#FDCC4C"/>
<path d="M82.2367 71.1667C83.0361 74.5972 85.7147 77.2759 89.1453 78.0752C85.7147 78.8748 83.0361 81.5533 82.2367 84.9838C81.4373 81.5533 78.7587 78.8748 75.3281 78.0752C78.7587 77.2759 81.4373 74.5972 82.2367 71.1667Z" fill="#FDCC4C"/>
</g>
</g>
<defs>
<clipPath id="clip0_137_3388">
<rect width="98" height="98" fill="white" transform="translate(0 0.5)"/>
</clipPath>
</defs>
</svg>
