<svg width="82" height="81" viewBox="0 0 82 81" fill="none" xmlns="http://www.w3.org/2000/svg">
<g clip-path="url(#clip0_327_30793)">
<mask id="mask0_327_30793" style="mask-type:luminance" maskUnits="userSpaceOnUse" x="0" y="0" width="82" height="81">
<path d="M81.5 0H0.5V81H81.5V0Z" fill="white"/>
</mask>
<g mask="url(#mask0_327_30793)">
<path d="M43.8804 14.5567L50.4088 27.7846C50.8632 28.7052 51.7415 29.3432 52.7574 29.4911L67.3552 31.612C69.9138 31.9838 70.9354 35.1283 69.084 36.9329L58.521 47.2295C57.7859 47.9461 57.4503 48.9787 57.6239 49.9905L60.1175 64.5292C60.5545 67.0775 57.8798 69.0209 55.5914 67.8176L42.5348 60.9535C41.626 60.4756 40.5402 60.4756 39.6316 60.9535L26.5748 67.8176C24.2863 69.0209 21.6117 67.0775 22.0487 64.5292L24.5423 49.9905C24.7158 48.9787 24.3805 47.9461 23.6452 47.2295L13.0822 36.9329C11.2307 35.1283 12.2523 31.9838 14.8109 31.612L29.4087 29.4911C30.4247 29.3432 31.3031 28.7052 31.7575 27.7846L38.2857 14.5567C39.4301 12.2383 42.7363 12.2383 43.8804 14.5567Z" fill="#F9D127"/>
<path d="M64.543 31.2033C60.6335 47.2612 45.25 59.2439 26.8699 59.2439C25.5573 59.2439 24.2611 59.1834 22.9847 59.0623L24.5438 49.9913C24.7173 48.9776 24.3822 47.9479 23.6469 47.229L13.0819 36.9343C11.2322 35.129 12.254 31.9828 14.8106 31.6112L29.4103 29.491C30.424 29.3415 31.3044 28.7035 31.7568 27.7825L38.2874 14.5558C39.4304 12.2376 42.7382 12.2376 43.8811 14.5558L50.4075 27.7825C50.8637 28.7035 51.7401 29.3415 52.7579 29.491L64.543 31.2033Z" fill="#FADD27"/>
<path d="M35.6665 29.2665C35.5079 29.2665 35.3469 29.2351 35.192 29.1691C34.5764 28.9069 34.2901 28.1951 34.5523 27.5795L35.4879 25.384C35.7505 24.7686 36.4619 24.4822 37.0773 24.7445C37.6929 25.0067 37.9792 25.7185 37.717 26.3341L36.7815 28.5296C36.585 28.9901 36.1373 29.2665 35.6665 29.2665Z" fill="#F7E980"/>
<path d="M38.0182 23.6387C37.8597 23.6387 37.6989 23.6075 37.5438 23.5415C36.9282 23.2792 36.6416 22.5672 36.9039 21.9516L38.7818 17.545C39.0441 16.9294 39.7559 16.6435 40.3713 16.9055C40.9869 17.168 41.2732 17.8796 41.011 18.4952L39.1332 22.9018C38.9368 23.3621 38.489 23.6387 38.0182 23.6387Z" fill="#F7E980"/>
<path d="M17.8401 35.0468C17.2537 35.0468 16.7377 34.6197 16.6446 34.0217C16.5413 33.3606 16.9937 32.7409 17.6548 32.6376L24.7654 31.5279C25.4296 31.4265 26.0468 31.8772 26.1495 32.5386C26.2528 33.1996 25.8004 33.8192 25.1392 33.9225L18.0287 35.0322C17.9651 35.0421 17.9025 35.0468 17.8401 35.0468Z" fill="#F7E980"/>
</g>
</g>
<defs>
<clipPath id="clip0_327_30793">
<rect width="81" height="81" fill="white" transform="translate(0.5)"/>
</clipPath>
</defs>
</svg>
